<?xml version="1.0" encoding="UTF-8" standalone="no"?>
<!DOCTYPE svg PUBLIC "-//W3C//DTD SVG 1.1//EN" "http://www.w3.org/Graphics/SVG/1.1/DTD/svg11.dtd">
<svg width="100%" height="100%" viewBox="0 0 100 100" version="1.1" xmlns="http://www.w3.org/2000/svg" xmlns:xlink="http://www.w3.org/1999/xlink" xml:space="preserve" xmlns:serif="http://www.serif.com/" style="fill-rule:evenodd;clip-rule:evenodd;stroke-linejoin:round;stroke-miterlimit:2;">
    <path d="M100,25L100,75C100,88.798 88.798,100 75,100L25,100C11.202,100 0,88.798 0,75L0,25C0,11.202 11.202,0 25,0L75,0C88.798,0 100,11.202 100,25Z" style="fill:white;"/>
    <g transform="matrix(1,0,0,1,1.45552,9.24409)">
        <g transform="matrix(1.20019,0,0,1.20019,-21.6047,-15.7407)">
            <g transform="matrix(1.0658,0,0,0.961304,-2.57855,7.06348)">
                <path d="M53.26,13.973L53.26,69.267C53.26,71.232 51.821,72.828 50.049,72.828L28.323,72.828C26.551,72.828 25.112,71.232 25.112,69.267L25.112,13.973C25.112,12.008 26.551,10.412 28.323,10.412L50.049,10.412C51.821,10.412 53.26,12.008 53.26,13.973Z" style="fill:rgb(255,226,0);"/>
                <path d="M54.042,13.973L54.042,69.267C54.042,71.711 52.253,73.694 50.049,73.694L28.323,73.694C26.12,73.694 24.331,71.711 24.331,69.267L24.331,13.973C24.331,11.529 26.12,9.546 28.323,9.546L50.049,9.546C52.253,9.546 54.042,11.529 54.042,13.973ZM53.26,13.973C53.26,12.008 51.821,10.412 50.049,10.412L28.323,10.412C26.551,10.412 25.112,12.008 25.112,13.973L25.112,69.267C25.112,71.232 26.551,72.828 28.323,72.828L50.049,72.828C51.821,72.828 53.26,71.232 53.26,69.267L53.26,13.973Z"/>
            </g>
            <g transform="matrix(0.884477,0,0,0.534066,4.89542,9.2909)">
                <rect x="20.066" y="21.213" width="37.408" height="1.872" style="fill:rgb(255,226,0);"/>
                <path d="M58.415,21.213L58.415,23.085C58.415,23.947 57.994,24.646 57.473,24.646L20.066,24.646C19.545,24.646 19.124,23.947 19.124,23.085L19.124,21.213C19.124,20.351 19.545,19.653 20.066,19.653L57.473,19.653C57.994,19.653 58.415,20.351 58.415,21.213ZM57.473,21.213L20.066,21.213L20.066,23.085L57.473,23.085L57.473,21.213Z"/>
            </g>
            <g transform="matrix(0.884477,0,0,0.534066,4.89542,61.2312)">
                <rect x="20.066" y="21.213" width="37.408" height="1.872" style="fill:rgb(255,226,0);"/>
                <path d="M58.415,21.213L58.415,23.085C58.415,23.947 57.994,24.646 57.473,24.646L20.066,24.646C19.545,24.646 19.124,23.947 19.124,23.085L19.124,21.213C19.124,20.351 19.545,19.653 20.066,19.653L57.473,19.653C57.994,19.653 58.415,20.351 58.415,21.213ZM57.473,21.213L20.066,21.213L20.066,23.085L57.473,23.085L57.473,21.213Z"/>
            </g>
        </g>
        <g transform="matrix(1.20019,0,0,1.20019,24.6317,-15.7407)">
            <g transform="matrix(1.0658,0,0,0.961304,-2.57855,7.06348)">
                <path d="M25.112,67.279L25.112,15.961L26.529,15.961C26.961,15.961 27.311,15.573 27.311,15.094L27.311,14.151C27.311,13.672 26.961,13.284 26.529,13.284L25.172,13.284C25.462,11.648 26.764,10.412 28.323,10.412L50.049,10.412C51.609,10.412 52.91,11.648 53.2,13.284L51.843,13.284C51.411,13.284 51.061,13.672 51.061,14.151L51.061,15.094C51.061,15.573 51.411,15.961 51.843,15.961L53.26,15.961L53.26,67.279L51.843,67.279C51.411,67.279 51.061,67.667 51.061,68.146L51.061,69.089C51.061,69.568 51.411,69.956 51.843,69.956L53.2,69.956C52.91,71.592 51.609,72.828 50.049,72.828L28.323,72.828C26.764,72.828 25.462,71.592 25.172,69.956L26.529,69.956C26.961,69.956 27.311,69.568 27.311,69.089L27.311,68.146C27.311,67.667 26.961,67.279 26.529,67.279L25.112,67.279Z" style="fill:rgb(255,226,0);"/>
                <path d="M26.529,69.089L26.529,68.146L25.112,68.146C24.681,68.146 24.331,67.758 24.331,67.279L24.331,15.961C24.331,15.482 24.681,15.094 25.112,15.094L26.529,15.094L26.529,14.151L25.172,14.151C24.939,14.151 24.717,14.035 24.569,13.835C24.42,13.635 24.36,13.371 24.405,13.117C24.765,11.083 26.384,9.546 28.323,9.546L50.049,9.546C51.989,9.546 53.607,11.083 53.967,13.117C54.012,13.371 53.952,13.635 53.804,13.835C53.655,14.035 53.434,14.151 53.2,14.151L51.843,14.151L51.843,15.094L53.26,15.094C53.692,15.094 54.042,15.482 54.042,15.961L54.042,67.279C54.042,67.758 53.692,68.146 53.26,68.146L51.843,68.146L51.843,69.089L53.2,69.089C53.434,69.089 53.655,69.205 53.804,69.405C53.952,69.605 54.012,69.869 53.967,70.123C53.607,72.157 51.989,73.694 50.049,73.694L28.323,73.694C26.384,73.694 24.765,72.157 24.405,70.123C24.36,69.869 24.42,69.605 24.569,69.405C24.717,69.205 24.939,69.089 25.172,69.089L26.529,69.089ZM26.529,69.089C26.098,69.089 26.529,68.61 26.529,69.089ZM25.112,67.279L26.529,67.279C26.961,67.279 27.311,67.667 27.311,68.146L27.311,69.089C27.311,69.568 26.961,69.956 26.529,69.956L25.172,69.956C25.462,71.592 26.764,72.828 28.323,72.828L50.049,72.828C51.609,72.828 52.91,71.592 53.2,69.956L51.843,69.956C51.411,69.956 51.061,69.568 51.061,69.089L51.061,68.146C51.061,67.667 51.411,67.279 51.843,67.279L53.26,67.279L53.26,15.961L51.843,15.961C51.411,15.961 51.061,15.573 51.061,15.094L51.061,14.151C51.061,13.672 51.411,13.284 51.843,13.284L53.2,13.284C52.91,11.648 51.609,10.412 50.049,10.412L28.323,10.412C26.764,10.412 25.462,11.648 25.172,13.284L26.529,13.284C26.961,13.284 27.311,13.672 27.311,14.151L27.311,15.094C27.311,15.573 26.961,15.961 26.529,15.961L25.112,15.961L25.112,67.279Z"/>
            </g>
            <g transform="matrix(0.721221,0,0,1.37422,11.2248,-9.31783)">
                <rect x="20.066" y="21.213" width="37.408" height="1.872"/>
            </g>
            <g transform="matrix(0.721221,0,0,-1.37422,11.2248,103.464)">
                <rect x="20.066" y="21.213" width="37.408" height="1.872"/>
            </g>
        </g>
    </g>
    <g transform="matrix(-1,0,0,1,100,0)">
        <g transform="matrix(-5.16717,0,0,5.16717,364.367,-185.045)">
            <path d="M57.851,40.456L55.318,40.42L54.446,46.059L56.223,45.648L55.115,50.556L58.285,43.907L56.399,44.395L57.851,40.456Z"/>
        </g>
        <g transform="matrix(5.16717,0,0,5.16717,-264.367,-185.045)">
            <path d="M57.851,40.456L55.318,40.42L54.446,46.059L56.223,45.648L55.115,50.556L58.285,43.907L56.399,44.395L57.851,40.456Z"/>
        </g>
    </g>
</svg>
